<svg xmlns="http://www.w3.org/2000/svg" width="9.819" height="30.546" viewBox="0 0 9.819 30.546">
  <path id="Контур_1" data-name="Контур 1" d="M5,19.818C2.3,19.818.09,18.1.09,16S2.3,12.182,5,12.182,9.909,13.9,9.909,16,7.7,19.818,5,19.818ZM5,8.364C2.3,8.364.09,6.645.09,4.545S2.3.727,5,.727,9.909,2.445,9.909,4.545,7.7,8.364,5,8.364ZM5,23.636c2.7,0,4.909,1.719,4.909,3.818S7.7,31.273,5,31.273.09,29.555.09,27.454,2.3,23.636,5,23.636Z" transform="translate(-0.09 -0.727)" fill="#475f7b" fill-rule="evenodd"/>
</svg>
