<svg id="Layer_1" enable-background="new 0 0 512 512" height="512" viewBox="0 0 512 512" width="512" xmlns="http://www.w3.org/2000/svg"><g><g><g><path d="m512 257.983c0 42.675-10.606 82.893-29.345 118.198l-288.308 128.404c-111.603-27.38-194.347-127.403-194.347-246.602 0-140.29 114.615-254.017 256-254.017s256 113.727 256 254.017z" fill="#fed402"/></g></g><path d="m449.272 424.502c12.895-14.724 24.125-30.918 33.363-48.323h-453.271c9.239 17.405 20.469 33.599 33.363 48.323z" fill="#a56941"/><path d="m134.79 424.502-.026-48.323h-105.4c9.239 17.405 20.469 33.599 33.363 48.323z" fill="#965028"/><g><path d="m206.36 47.8h-20.379c-1.62 0-2.951-1.268-3.018-2.874l-1.848-41.807c-.07-1.702 1.302-3.119 3.018-3.119h24.074c1.716 0 3.088 1.417 3.018 3.119l-1.848 41.807c-.066 1.606-1.397 2.874-3.017 2.874z" fill="#a56941"/><path d="m193.434 44.926-1.848-41.807c-.07-1.702 1.302-3.119 3.018-3.119h-10.471c-1.716 0-3.088 1.417-3.018 3.119l1.848 41.807c.066 1.606 1.397 2.874 3.017 2.874h10.471c-1.619 0-2.951-1.268-3.017-2.874z" fill="#965028"/><path d="m218.159 117.788v-83.934c0-3.2-2.615-5.794-5.84-5.794h-32.299c-3.225 0-5.84 2.594-5.84 5.794v83.935c-28.265 9.176-48.691 35.541-48.691 66.653v174.929c0 9.259 7.565 16.765 16.896 16.765h107.567c9.332 0 16.896-7.506 16.896-16.765v-174.929c.002-31.113-20.423-57.478-48.689-66.654z" fill="#97d729"/><path d="m218.159 47.675v-13.821c0-3.2-2.615-5.794-5.84-5.794h-32.299c-3.225 0-5.84 2.594-5.84 5.794v13.821z" fill="#8bc727"/><path d="m144.338 359.371v-163.5c0-31.113 20.425-57.477 48.691-66.653v-101.159h-13.009c-3.225 0-5.84 2.594-5.84 5.794v83.935c-28.265 9.176-48.691 35.541-48.691 66.653v174.929c0 9.259 7.565 16.765 16.896 16.765h107.567c9.332 0 16.896-7.506 16.896-16.765h-122.51z" fill="#8bc727"/><path d="m267.199 342.889h-77.063c-3.703 0-6.706-3.002-6.706-6.706v-123.736c0-3.703 3.002-6.706 6.706-6.706h77.063z" fill="#fffad7"/><path d="m201.231 336.209v-123.788c0-3.689 3.014-6.68 6.732-6.68h-17.801c-3.718 0-6.732 2.991-6.732 6.68v123.788c0 3.689 3.014 6.68 6.732 6.68h17.801c-3.718 0-6.732-2.991-6.732-6.68z" fill="#ffebb4"/><path d="m219.93 40.734h-47.607c-2.029 0-3.674-1.645-3.674-3.674v-5.328c0-2.029 1.645-3.674 3.674-3.674h47.607c2.029 0 3.674 1.645 3.674 3.674v5.328c-.001 2.03-1.645 3.674-3.674 3.674z" fill="#97d729"/></g><g><path d="m194.351 504.567c19.748 4.845 40.392 7.433 61.649 7.433 77.175 0 146.37-33.888 193.306-87.482v-48.339h-254.955z" fill="#fff"/><path d="m194.351 504.567c9.219 2.262 18.63 4.036 28.212 5.277v-133.665h-28.212z" fill="#d2f0ff"/><path d="m396.208 470.528h-201.857v16.589h172.278c10.26-4.886 20.132-10.441 29.579-16.589z" fill="#ffa50a"/><path d="m194.351 470.528h44.931v16.589h-44.931z" fill="#fa870a"/></g><g><path d="m368.483 227.397v-105.235h-80.457v105.236c0 19.384 13.927 35.535 32.392 39.154v88.944l-26.643 6.779c-3.383.861-5.749 3.886-5.749 7.352 0 4.191 3.424 7.589 7.649 7.589h65.16c4.224 0 7.649-3.398 7.649-7.589v-.038c0-3.448-2.342-6.462-5.702-7.34l-26.69-6.969v-88.728c18.464-3.619 32.391-19.771 32.391-39.155z" fill="#fff"/><path d="m303.699 369.626c0-3.466 2.366-6.491 5.749-7.352l26.643-6.779v-.217-88.728c-18.465-3.619-32.392-19.77-32.392-39.154v-105.234h-15.673v105.236c0 19.384 13.927 35.535 32.392 39.154v88.944l-26.643 6.779c-3.383.861-5.749 3.886-5.749 7.352 0 4.191 3.424 7.589 7.649 7.589h15.673c-4.224 0-7.649-3.398-7.649-7.59z" fill="#d2f0ff"/><path d="m295.538 170.092v54.683c0 15.764 11.326 28.9 26.343 31.843h12.747c15.017-2.943 26.343-16.078 26.343-31.843v-54.683z" fill="#fd4755"/><path d="m295.538 170.092v54.683c0 12.819 7.489 23.899 18.362 29.174-6.342-7.054-10.201-16.354-10.201-26.552v-57.305z" fill="#aa321e"/></g></g></svg>